<svg width="798" height="835" viewBox="0 0 798 835" fill="none" xmlns="http://www.w3.org/2000/svg">
<g clip-path="url(#clip0_101_36)">
<path d="M308.5 834.5C478.88 834.5 617 810.1 617 780C617 749.9 478.88 725.5 308.5 725.5C138.12 725.5 0 749.9 0 780C0 810.1 138.12 834.5 308.5 834.5Z" fill="#3F3D56"/>
<path d="M496 603C662.514 603 797.5 468.014 797.5 301.5C797.5 134.986 662.514 0 496 0C329.486 0 194.5 134.986 194.5 301.5C194.5 468.014 329.486 603 496 603Z" fill="#3F3D56"/>
<path opacity="0.05" d="M496 550.398C633.462 550.398 744.898 438.962 744.898 301.5C744.898 164.038 633.462 52.6021 496 52.6021C358.537 52.6021 247.102 164.038 247.102 301.5C247.102 438.962 358.537 550.398 496 550.398Z" fill="black"/>
<path opacity="0.05" d="M496 505.494C608.663 505.494 699.994 414.163 699.994 301.5C699.994 188.837 608.663 97.5063 496 97.5063C383.337 97.5063 292.006 188.837 292.006 301.5C292.006 414.163 383.337 505.494 496 505.494Z" fill="black"/>
<path opacity="0.05" d="M496 447.76C576.777 447.76 642.26 382.277 642.26 301.5C642.26 220.723 576.777 155.24 496 155.24C415.223 155.24 349.74 220.723 349.74 301.5C349.74 382.277 415.223 447.76 496 447.76Z" fill="black"/>
<path opacity="0.1" d="M277.5 414.958L317.885 486.947L283.86 411.09L277.5 414.958Z" fill="black"/>
<path d="M559 787.5C582.748 787.5 602 768.248 602 744.5C602 720.752 582.748 701.5 559 701.5C535.252 701.5 516 720.752 516 744.5C516 768.248 535.252 787.5 559 787.5Z" fill="#6C63FF"/>
<path d="M54 772.5C77.7482 772.5 97 753.248 97 729.5C97 705.752 77.7482 686.5 54 686.5C30.2518 686.5 11 705.752 11 729.5C11 753.248 30.2518 772.5 54 772.5Z" fill="#6C63FF"/>
<path d="M54 703.5C71.1208 703.5 85 689.621 85 672.5C85 655.379 71.1208 641.5 54 641.5C36.8792 641.5 23 655.379 23 672.5C23 689.621 36.8792 703.5 54 703.5Z" fill="#6C63FF"/>
<path d="M54 646.5C66.1503 646.5 76 636.65 76 624.5C76 612.35 66.1503 602.5 54 602.5C41.8497 602.5 32 612.35 32 624.5C32 636.65 41.8497 646.5 54 646.5Z" fill="#6C63FF"/>
</g>
<defs>
<clipPath id="clip0_101_36">
<rect width="797.5" height="834.5" fill="white"/>
</clipPath>
</defs>
</svg>
